<svg width="0" height="0" display="none"><symbol xmlns="http://www.w3.org/2000/svg" viewBox="0 0 16 16" id="icon-bell"><path d="M16.023 12.5c0-4.5-4-3.5-4-7 0-.29-.028-.538-.079-.749-.263-1.766-1.44-3.183-2.965-3.615A.86.86 0 0 0 9 .945C9 .425 8.55 0 8 0S7 .425 7 .945c0 .065.007.129.021.191-1.71.484-2.983 2.208-3.02 4.273L4 5.5C4 9 0 8 0 12.5c0 1.191 2.665 2.187 6.234 2.439a2 2 0 0 0 3.532 0C13.334 14.688 16 13.691 16 12.5v-.011l.024.011zm-3.113.845c-.847.226-1.846.389-2.918.479a2 2 0 0 0-3.984 0c-1.072-.09-2.071-.253-2.918-.479-1.166-.311-1.724-.659-1.928-.845.204-.186.762-.534 1.928-.845 1.356-.362 3.1-.561 4.91-.561s3.554.199 4.91.561c1.166.311 1.724.659 1.928.845-.204.186-.762.534-1.928.845z"/></symbol><symbol xmlns="http://www.w3.org/2000/svg" viewBox="0 0 16 16" id="icon-camera"><path d="M6 4.5a2.5 2.5 0 1 1 5 0 2.5 2.5 0 0 1-5 0zm-6 0a2.5 2.5 0 1 1 5 0 2.5 2.5 0 0 1-5 0zm12 5V8c0-.55-.45-1-1-1H1c-.55 0-1 .45-1 1v5c0 .55.45 1 1 1h10c.55 0 1-.45 1-1v-1.5l4 2.5V7l-4 2.5zM10 12H2V9h8v3z"/></symbol><symbol xmlns="http://www.w3.org/2000/svg" viewBox="0 0 16 16" id="icon-desktop"><path d="M0 1v10h16V1H0zm15 9H1V2h14v8zm-4.5 2h-5L5 14l-1 1h8l-1-1z"/></symbol><symbol xmlns="http://www.w3.org/2000/svg" viewBox="0 0 16 16" id="icon-folder"><path d="M7 2l2 2h7v11H0V2z"/></symbol><symbol xmlns="http://www.w3.org/2000/svg" viewBox="0 0 16 16" id="icon-gift"><path d="M12.055 5a6.27 6.27 0 0 0 .804-.674c.522-.522.871-1.164.983-1.808.123-.706-.057-1.362-.494-1.798-.348-.348-.82-.533-1.365-.533-.775 0-1.593.372-2.242 1.021-1.039 1.039-1.644 2.472-1.97 3.496-.241-1.028-.722-2.416-1.657-3.351C5.613.852 4.972.594 4.366.594c-.495 0-.965.172-1.317.523-.781.781-.675 2.153.236 3.064.325.325.705.595 1.105.819H.999v4h1v7h12V9h1V5h-2.945zm-1.519-2.997c.433-.433.974-.692 1.446-.692.167 0 .402.035.57.203.407.407.178 1.349-.489 2.016-.687.687-1.61 1.159-2.413 1.47h-.792c.29-.899.813-2.132 1.678-2.997zm-6.881.511c-.011-.143-.001-.41.191-.601a.727.727 0 0 1 .521-.194c.332 0 .679.157.952.429.529.529.965 1.371 1.26 2.436l.023.086-.086-.023c-1.064-.295-1.906-.731-2.436-1.26a1.42 1.42 0 0 1-.426-.872zM7 15H3V8.5h4V15zm0-7H2V6h5v2zm6 7H9V8.5h4V15zm1-7H9V6h5v2z"/></symbol><symbol xmlns="http://www.w3.org/2000/svg" viewBox="0 0 16 16" id="icon-mobile"><path d="M11.5 0h-7C3.675 0 3 .675 3 1.5v13c0 .825.675 1.5 1.5 1.5h7c.825 0 1.5-.675 1.5-1.5v-13c0-.825-.675-1.5-1.5-1.5zM6 .75h4v.5H6v-.5zM8 15a1 1 0 1 1 0-2 1 1 0 0 1 0 2zm4-3H4V2h8v10z"/></symbol><symbol xmlns="http://www.w3.org/2000/svg" viewBox="0 0 16 16" id="icon-search"><path d="M15.504 13.616l-3.79-3.223c-.392-.353-.811-.514-1.149-.499a6 6 0 1 0-.672.672c-.016.338.146.757.499 1.149l3.223 3.79c.552.613 1.453.665 2.003.115s.498-1.452-.115-2.003zM6 10a4 4 0 1 1 0-8 4 4 0 0 1 0 8z"/></symbol><symbol xmlns="http://www.w3.org/2000/svg" viewBox="0 0 16 16" id="icon-upload"><path d="M13.942 6.039a2.5 2.5 0 0 0-3.085-2.955 3 3 0 0 0-5.737.075A4 4 0 1 0 4 11h2v3h4v-3h3.5a2.5 2.5 0 0 0 .442-4.961zM9 10v3H7v-3H4.5L8 6.5l3.5 3.5H9z"/></symbol>
</svg>
